<?xml version="1.0" encoding="UTF-8"?>
<svg width="19px" height="26px" viewBox="0 0 19 26" version="1.1" xmlns="http://www.w3.org/2000/svg" xmlns:xlink="http://www.w3.org/1999/xlink">
    <!-- Generator: Sketch 47 (45396) - http://www.bohemiancoding.com/sketch -->
    <title>Path</title>
    <desc>Created with Sketch.</desc>
    <defs></defs>
    <g id="Page-1" stroke="none" stroke-width="1" fill="none" fill-rule="evenodd">
        <g id="iPhone-7-Landingpage-Copy" transform="translate(-61.000000, -845.000000)" fill="#FFFFFF">
            <g id="Filter-UI" transform="translate(28.000000, 668.000000)">
                <g id="Year-slider" transform="translate(0.000000, 160.000000)">
                    <path d="M46.6924659,22.1513485 C48.1398357,19.8370831 46.502994,18.1771295 44.786889,17.4513699 C43.6734023,16.9802439 42.5077973,17.0001203 42.3161538,17.0001203 C42.1245103,17.0001203 40.9583624,16.9802439 39.8448757,17.4513699 C38.1287707,18.1771295 36.491929,19.8376203 37.9392988,22.1513485 C38.2720961,22.6826411 38.2237781,22.762147 37.7769719,23.1027329 C34.92675,24.9028962 33,28.3452854 33,32.2964047 C33,38.1100027 37.1705532,42.822337 42.3156109,42.822337 C47.4606686,42.822337 51.6312218,38.1100027 51.6312218,32.2964047 C51.6312218,28.346897 49.7061005,24.9061194 46.8580502,23.1054189 C46.4079866,22.762147 46.3607544,22.6821039 46.6924659,22.1513485 Z" id="Path"></path>
                </g>
            </g>
        </g>
    </g>
</svg>